<svg xmlns="http://www.w3.org/2000/svg" viewBox="0 0 1281.67 520.75"><defs><style>.cls-1{fill:#fffaeb;}.cls-2{fill:#fec200;}.cls-3{fill:#fff;}</style></defs><g id="Layer_2" data-name="Layer 2"><g id="Text"><g id="waves"><rect class="cls-1" y="222.54" width="31.22" height="75.68" rx="15.61"/><rect class="cls-1" x="65.91" y="114.49" width="31.22" height="291.78" rx="15.61"/><rect class="cls-1" x="131.81" y="77.95" width="31.22" height="364.85" rx="15.61"/><rect class="cls-1" x="197.72" y="12.04" width="31.22" height="496.67" rx="14.64"/><rect class="cls-1" x="263.62" y="60.37" width="31.22" height="400" rx="15.61"/><rect class="cls-1" x="329.53" y="143.62" width="31.22" height="233.5" rx="15.61"/><rect class="cls-1" x="793.25" y="184.21" width="30.96" height="152.33" rx="15.48"/><rect class="cls-1" x="727.89" y="114.49" width="30.96" height="291.78" rx="15.48"/><rect class="cls-1" x="662.54" y="77.95" width="30.96" height="364.85" rx="15.48"/><rect class="cls-1" x="597.19" width="30.96" height="520.75" rx="14.86"/><rect class="cls-1" x="531.84" y="60.37" width="30.96" height="400" rx="15.48"/><rect class="cls-1" x="1119.89" y="67.54" width="30.96" height="385.66" rx="15.48"/><rect class="cls-1" x="1054.54" y="114.49" width="30.96" height="291.78" rx="15.48"/><rect class="cls-1" x="989.19" y="77.95" width="30.96" height="364.85" rx="15.48"/><rect class="cls-1" x="923.84" y="12.04" width="30.96" height="496.67" rx="14.52"/><rect class="cls-1" x="858.48" y="60.37" width="30.96" height="400" rx="15.48"/><rect class="cls-1" x="1250.72" y="222.08" width="30.96" height="76.6" rx="15.48"/><rect class="cls-1" x="1185.36" y="132.02" width="30.96" height="256.71" rx="15.48"/><rect class="cls-1" x="466.49" y="143.62" width="30.96" height="233.5" rx="15.48"/><rect class="cls-1" x="395.43" y="100.52" width="31.22" height="319.71" rx="15.61"/></g><path class="cls-2" d="M479,296.89,360.48,415.37a51.66,51.66,0,0,1-73.05,0L169,296.89a51.63,51.63,0,0,1,0-73L287.43,105.38a51.66,51.66,0,0,1,73.05,0L479,223.86A51.62,51.62,0,0,1,479,296.89Z"/><path class="cls-3" d="M324,168.39a58.08,58.08,0,0,0-58,58v46.14a58,58,0,0,0,116.05,0V226.4A58.07,58.07,0,0,0,324,168.39Zm47.71,69.66h-15.3a5.16,5.16,0,0,0,0,10.31h15.3v12.25h-15.3a5.16,5.16,0,0,0,0,10.31h15.3v1.62a47.78,47.78,0,0,1-1.21,10.63H356.37a5.15,5.15,0,1,0,0,10.3h10.45a47.7,47.7,0,0,1-85.72,0H315a5.15,5.15,0,1,0,0-10.3H277.46a47.2,47.2,0,0,1-1.22-10.63v-1.62H315a5.16,5.16,0,0,0,0-10.31H276.24V248.36H315a5.16,5.16,0,0,0,0-10.31H276.24V226.4c0-.2,0-.39,0-.58H315a5.16,5.16,0,0,0,0-10.31H277.52a47.7,47.7,0,0,1,92.88,0h-14a5.16,5.16,0,0,0,0,10.31h15.28c0,.19,0,.38,0,.58Z"/><path class="cls-3" d="M409.63,271.05a85.8,85.8,0,0,1-79.78,85.3v70.91a5.76,5.76,0,0,1-.82,3,52,52,0,0,1-10.13,0,5.77,5.77,0,0,1-.83-3V356.35a85.82,85.82,0,0,1-79.78-85.3,5.89,5.89,0,0,1,5.88-5.91h0a5.89,5.89,0,0,1,5.89,5.88,73.89,73.89,0,0,0,147.78,0,5.89,5.89,0,0,1,5.89-5.88h0A5.91,5.91,0,0,1,409.63,271.05Z"/><path class="cls-2" d="M660.91,194q13.56,10.92,13.56,30.45,0,16.69-7.87,29.11a50.71,50.71,0,0,1-22.38,19.07q-14.52,6.64-34.24,6.64H580.39l-7.21,36.61H542.26l26.56-132.78H622.5Q647.34,183.08,660.91,194ZM635,247.19q8.34-7,8.34-20.11,0-9.48-6.35-14.22t-18.31-4.75H594.61l-9.29,46.1h26Q626.67,254.21,635,247.19Z"/><path class="cls-2" d="M701.5,311.68a42.43,42.43,0,0,1-18-16q-6.36-10.35-6.35-24a58.41,58.41,0,0,1,8-30.35,57.33,57.33,0,0,1,22-21.25,64.32,64.32,0,0,1,31.68-7.77q15.54,0,27.12,5.69a42.56,42.56,0,0,1,17.93,16,44.93,44.93,0,0,1,6.35,24,59,59,0,0,1-7.87,30.35,56.51,56.51,0,0,1-22,21.25,64.87,64.87,0,0,1-31.78,7.77Q713.17,317.37,701.5,311.68Zm44.3-23a28.91,28.91,0,0,0,10.62-11.86,38.46,38.46,0,0,0,3.79-17.45q0-10.42-6.07-16.5t-17.07-6.07a28.37,28.37,0,0,0-26.18,16.12,38.52,38.52,0,0,0-3.79,17.45q0,10.44,6.16,16.51t17.17,6.06A28.47,28.47,0,0,0,745.8,288.64Z"/><path class="cls-2" d="M929.22,175.11,901.15,315.86H873.08l2.08-10.25q-12.9,11.77-31.3,11.76a45.06,45.06,0,0,1-22-5.5,41,41,0,0,1-16-15.83q-6-10.35-6-24.38a61.89,61.89,0,0,1,7.49-30.45A55.32,55.32,0,0,1,827.74,220a54.57,54.57,0,0,1,28.45-7.68,47.53,47.53,0,0,1,19.64,3.79,31,31,0,0,1,13.37,11.19l10.43-52.16Zm-60.7,113.53a28.93,28.93,0,0,0,10.63-11.86,38.6,38.6,0,0,0,3.79-17.45q0-10.42-6.17-16.5t-17.16-6.07a28.34,28.34,0,0,0-26.18,16.12,38.52,38.52,0,0,0-3.79,17.45q0,10.44,6.16,16.51T853,292.9A28.77,28.77,0,0,0,868.52,288.64Z"/><path class="cls-2" d="M992.67,200.62q-3.88,3.7-5.41,11.67l-.76,3.79H1035l-4.55,22.76H982.71l-15.36,77h-29.6l15.37-77H937.18l4.56-22.76h15.93l1.14-5.88q3.6-17.07,14.89-26.84t29.5-9.77a54.26,54.26,0,0,1,13,1.52,37.33,37.33,0,0,1,10.53,4.17l-11.57,21.25a18.93,18.93,0,0,0-11.76-3.61Q996.55,196.92,992.67,200.62Z"/><path class="cls-2" d="M1127.83,216.07,1059.92,325q-11,17.83-21.34,24.66t-25.32,6.83A51,51,0,0,1,997.61,354a32.46,32.46,0,0,1-12-6.45l13.65-21.25a23.28,23.28,0,0,0,16.32,6.26,17.12,17.12,0,0,0,9.86-2.84q4.17-2.85,8.54-9.68l.94-1.71-23.52-102.24H1041l15.18,69.43,42.49-69.43Z"/></g></g></svg>